<svg width="26" height="21" viewBox="0 0 26 21" fill="none" xmlns="http://www.w3.org/2000/svg">
<path d="M24.375 0.0519714H1.625C1.19402 0.0519714 0.780698 0.228006 0.475951 0.541349C0.171205 0.854693 0 1.27968 0 1.72281V18.4312C0 18.8744 0.171205 19.2993 0.475951 19.6127C0.780698 19.926 1.19402 20.1021 1.625 20.1021H24.375C24.806 20.1021 25.2193 19.926 25.524 19.6127C25.8288 19.2993 26 18.8744 26 18.4312V1.72281C26 1.27968 25.8288 0.854693 25.524 0.541349C25.2193 0.228006 24.806 0.0519714 24.375 0.0519714ZM24.375 18.4312H1.625V1.72281H24.375V18.4312Z" fill="black"/>
<path d="M5.6875 6.73534H20.3125C20.528 6.73534 20.7347 6.64732 20.887 6.49065C21.0394 6.33398 21.125 6.12149 21.125 5.89992C21.125 5.67835 21.0394 5.46586 20.887 5.30919C20.7347 5.15252 20.528 5.0645 20.3125 5.0645H5.6875C5.47201 5.0645 5.26535 5.15252 5.11298 5.30919C4.9606 5.46586 4.875 5.67835 4.875 5.89992C4.875 6.12149 4.9606 6.33398 5.11298 6.49065C5.26535 6.64732 5.47201 6.73534 5.6875 6.73534Z" fill="black"/>
<path d="M5.6875 10.0769H20.3125C20.528 10.0769 20.7347 9.98886 20.887 9.83219C21.0394 9.67552 21.125 9.46302 21.125 9.24146C21.125 9.01989 21.0394 8.8074 20.887 8.65072C20.7347 8.49405 20.528 8.40604 20.3125 8.40604H5.6875C5.47201 8.40604 5.26535 8.49405 5.11298 8.65072C4.9606 8.8074 4.875 9.01989 4.875 9.24146C4.875 9.46302 4.9606 9.67552 5.11298 9.83219C5.26535 9.98886 5.47201 10.0769 5.6875 10.0769Z" fill="black"/>
<path d="M5.6875 13.4188H13.8125C14.028 13.4188 14.2347 13.3308 14.387 13.1742C14.5394 13.0175 14.625 12.805 14.625 12.5834C14.625 12.3619 14.5394 12.1494 14.387 11.9927C14.2347 11.836 14.028 11.748 13.8125 11.748H5.6875C5.47201 11.748 5.26535 11.836 5.11298 11.9927C4.9606 12.1494 4.875 12.3619 4.875 12.5834C4.875 12.805 4.9606 13.0175 5.11298 13.1742C5.26535 13.3308 5.47201 13.4188 5.6875 13.4188Z" fill="black"/>
</svg>
